<svg version="1.1" xmlns="http://www.w3.org/2000/svg" xmlns:xlink="http://www.w3.org/1999/xlink" viewBox="0 0 172 172"><g fill="none" fill-rule="nonzero" stroke="none" stroke-width="1" stroke-linecap="butt" stroke-linejoin="miter" stroke-miterlimit="10" stroke-dasharray="" stroke-dashoffset="0" font-family="none" font-weight="none" font-size="none" text-anchor="none" style="mix-blend-mode: normal"><path d="M0,172v-172h172v172z" fill="none"></path><g><path d="M132.58333,143.33333h-93.16667l-21.5,21.5v-121.83333c0,-11.825 9.675,-21.5 21.5,-21.5h93.16667c11.825,0 21.5,9.675 21.5,21.5v78.83333c0,11.825 -9.675,21.5 -21.5,21.5z" fill="#2196f3"></path><path d="M78.83333,71.66667h14.33333v39.41667h-14.33333zM86,46.58333c-3.95804,0 -7.16667,3.20863 -7.16667,7.16667c0,3.95804 3.20863,7.16667 7.16667,7.16667c3.95804,0 7.16667,-3.20863 7.16667,-7.16667c0,-3.95804 -3.20863,-7.16667 -7.16667,-7.16667z" fill="#ffffff"></path></g></g></svg>