<svg version="1.1" xmlns="http://www.w3.org/2000/svg" xmlns:xlink="http://www.w3.org/1999/xlink" viewBox="0 0 172 172"><g fill="none" fill-rule="nonzero" stroke="none" stroke-width="1" stroke-linecap="butt" stroke-linejoin="miter" stroke-miterlimit="10" stroke-dasharray="" stroke-dashoffset="0" font-family="none" font-weight="none" font-size="none" text-anchor="none" style="mix-blend-mode: normal"><path d="M0,172v-172h172v172z" fill="none"></path><g><path d="M143.33333,75.25l-28.4445,-7.76867l14.62,-25.6065l-10.13725,-10.13725l-24.49208,13.98217l-8.8795,-27.80308h-14.33333l-8.51042,26.64925l-24.86117,-12.82475l-10.13725,10.13725l12.82475,24.86117l-26.64925,8.51042v14.33333l26.64925,8.51042l-12.82475,24.86117l10.13725,10.13725l24.86117,-12.82475l8.51042,26.64925h14.33333l8.51042,-26.64925l24.86117,12.82475l10.13725,-10.13725l-13.38017,-25.93975l27.20467,-7.43183zM78.83333,111.08333c-15.83117,0 -28.66667,-12.8355 -28.66667,-28.66667c0,-15.83117 12.8355,-28.66667 28.66667,-28.66667c15.83117,0 28.66667,12.8355 28.66667,28.66667c0,15.83117 -12.8355,28.66667 -28.66667,28.66667z" fill="#455a64"></path><path d="M78.83333,35.83333c-25.72833,0 -46.58333,20.855 -46.58333,46.58333c0,25.72833 20.855,46.58333 46.58333,46.58333c25.72833,0 46.58333,-20.855 46.58333,-46.58333c0,-25.72833 -20.855,-46.58333 -46.58333,-46.58333zM78.83333,107.5c-13.84958,0 -25.08333,-11.22658 -25.08333,-25.08333c0,-13.85675 11.23375,-25.08333 25.08333,-25.08333c13.84958,0 25.08333,11.22658 25.08333,25.08333c0,13.85675 -11.23375,25.08333 -25.08333,25.08333z" fill="#78909c"></path><path d="M82.41667,96.75h75.25v60.91667h-75.25z" fill="#bbdefb"></path><path d="M118.50442,103.91667l-12.67067,12.66708l-7.60025,-7.60025l-5.06683,5.06683l12.66708,12.66708l17.7375,-17.73392zM118.50442,127.69925l-12.67067,12.66708l-7.60025,-7.60025l-5.06683,5.06683l12.66708,12.66708l17.7375,-17.73392zM157.66667,96.75v-10.75c0,-1.98158 -1.60175,-3.58333 -3.58333,-3.58333h-68.08333c-1.978,0 -3.58333,1.60175 -3.58333,3.58333v10.75z" fill="#3f51b5"></path></g></g></svg>