<svg version="1.1" xmlns="http://www.w3.org/2000/svg" xmlns:xlink="http://www.w3.org/1999/xlink" viewBox="0 0 172 172"><g fill="none" fill-rule="nonzero" stroke="none" stroke-width="1" stroke-linecap="butt" stroke-linejoin="miter" stroke-miterlimit="10" stroke-dasharray="" stroke-dashoffset="0" font-family="none" font-weight="none" font-size="none" text-anchor="none" style="mix-blend-mode: normal"><path d="M0,172v-172h172v172z" fill="none"></path><g><path d="M136.525,111.8l-67.00833,-25.8l67.00833,-25.8c5.375,-2.15 8.24167,-8.24167 6.09167,-13.975c-2.15,-5.375 -8.24167,-8.24167 -13.975,-6.09167l-93.16667,35.83333c-3.94167,1.43333 -6.80833,5.73333 -6.80833,10.03333c0,4.3 2.86667,8.6 6.80833,10.03333l93.16667,35.83333c1.43333,0.35833 2.50833,0.71667 3.94167,0.71667c4.3,0 8.24167,-2.50833 10.03333,-6.80833c2.15,-5.73333 -0.71667,-11.825 -6.09167,-13.975z" fill="#1976d2"></path><path d="M39.41667,60.91667c-13.85314,0 -25.08333,11.23019 -25.08333,25.08333c0,13.85314 11.23019,25.08333 25.08333,25.08333c13.85314,0 25.08333,-11.23019 25.08333,-25.08333c0,-13.85314 -11.23019,-25.08333 -25.08333,-25.08333zM132.58333,25.08333c-13.85314,0 -25.08333,11.23019 -25.08333,25.08333c0,13.85314 11.23019,25.08333 25.08333,25.08333c13.85314,0 25.08333,-11.23019 25.08333,-25.08333c0,-13.85314 -11.23019,-25.08333 -25.08333,-25.08333zM132.58333,96.75c-13.85314,0 -25.08333,11.23019 -25.08333,25.08333c0,13.85314 11.23019,25.08333 25.08333,25.08333c13.85314,0 25.08333,-11.23019 25.08333,-25.08333c0,-13.85314 -11.23019,-25.08333 -25.08333,-25.08333z" fill="#1e88e5"></path></g></g></svg>