<svg version="1.1" xmlns="http://www.w3.org/2000/svg" xmlns:xlink="http://www.w3.org/1999/xlink" viewBox="0 0 172 172"><g fill="none" fill-rule="nonzero" stroke="none" stroke-width="1" stroke-linecap="butt" stroke-linejoin="miter" stroke-miterlimit="10" stroke-dasharray="" stroke-dashoffset="0" font-family="none" font-weight="none" font-size="none" text-anchor="none" style="mix-blend-mode: normal"><path d="M0,172v-172h172v172z" fill="none"></path><g><path d="M39.41667,14.33333h35.83333c0,3.95958 3.20708,7.16667 7.16667,7.16667c3.95958,0 7.16667,-3.20708 7.16667,-7.16667h35.83333c7.92275,0 14.33333,6.41058 14.33333,14.33333v114.66667c0,7.92275 -6.41058,14.33333 -14.33333,14.33333h-86c-7.92275,0 -14.33333,-6.41058 -14.33333,-14.33333v-114.66667c0,-7.92275 6.41058,-14.33333 14.33333,-14.33333" fill="#455a64"></path><path d="M39.41667,146.91667h86c1.97442,0 3.58333,-1.60892 3.58333,-3.58333v-114.66667c0,-1.97442 -1.60892,-3.58333 -3.58333,-3.58333h-86c-1.97442,0 -3.58333,1.60892 -3.58333,3.58333v114.66667c0,1.97442 1.60892,3.58333 3.58333,3.58333" fill="#ffffff"></path><path d="M75.25,14.33333c0,3.95958 3.20708,7.16667 7.16667,7.16667c3.95958,0 7.16667,-3.20708 7.16667,-7.16667h25.08333v14.33333c0,3.95958 -3.20708,7.16667 -7.16667,7.16667h-50.16667c-3.95958,0 -7.16667,-3.20708 -7.16667,-7.16667v-14.33333z" fill="#90a4ae"></path><path d="M82.41667,0c-7.90842,0 -14.33333,6.42492 -14.33333,14.33333c0,7.90842 6.42492,14.33333 14.33333,14.33333c7.90842,0 14.33333,-6.42492 14.33333,-14.33333c0,-7.90842 -6.42492,-14.33333 -14.33333,-14.33333M82.41667,21.5c-3.95958,0 -7.16667,-3.20708 -7.16667,-7.16667c0,-3.95958 3.20708,-7.16667 7.16667,-7.16667c3.95958,0 7.16667,3.20708 7.16667,7.16667c0,3.95958 -3.20708,7.16667 -7.16667,7.16667" fill="#90a4ae"></path><rect x="23" y="23" transform="scale(3.58333,3.58333)" width="9" height="2" fill="#bdbdbd"></rect><rect x="23" y="27" transform="scale(3.58333,3.58333)" width="9" height="2" fill="#bdbdbd"></rect><rect x="23" y="19" transform="scale(3.58333,3.58333)" width="9" height="2" fill="#bdbdbd"></rect><rect x="23" y="15" transform="scale(3.58333,3.58333)" width="9" height="2" fill="#bdbdbd"></rect><rect x="23" y="35" transform="scale(3.58333,3.58333)" width="9" height="2" fill="#bdbdbd"></rect><path d="M172,132.58333v39.41667h-21.5l-21.07358,-14.33333l11.11908,-17.54042l-27.48058,-10.9005l8.91892,-22.48183l-25.93975,11.5455c-1.75942,0.84208 -3.75892,0.82058 -5.45742,0.14692c-1.48708,-0.62708 -2.72692,-1.77733 -3.49017,-3.35042c-1.55875,-3.35758 -0.16842,-7.353 3.2035,-8.944l32.207,-14.22225c1.76658,-0.76325 3.75892,-0.82058 5.55417,-0.1075l24.84683,9.85775c1.83108,0.72742 3.66217,1.45483 4.62608,2.52983z" fill="#f1e4ae"></path><path d="M134.61867,116.95283l-0.00717,-0.01433l-18.06717,9.28083l11.58133,6.12033l16.383,-2.20733l-1.04275,-11.94683l-3.53317,-3.98825l-0.54467,0.26875l-2.3865,1.24342v0l-0.10033,0.05375z" fill="#a5ab76"></path><path d="M170.95008,101.65917l-5.66883,-13.115c-0.86,-1.9995 -3.182,-2.92042 -5.17792,-2.05325l-6.17767,2.666l-1.01408,12.513l9.80758,7.84033l6.17408,-2.66958c1.9995,-0.86717 2.91683,-3.182 2.05683,-5.1815" fill="#e57373"></path><path d="M162.72633,109.51025l-10.17667,4.40033l-8.94042,-8.22375l0.13975,-12.13317l10.17667,-4.40033z" fill="#b0bec5"></path><path d="M86.46583,118.2715l57.29033,-24.7465l8.7935,20.35692l-57.29033,24.7465l-7.47483,-8.83292z" fill="#00acc1"></path><path d="M86.46225,118.293l-6.24933,8.67167l-1.73433,6.85133l6.17767,3.43642l10.59592,1.3975z" fill="#ffc107"></path><path d="M96.148,121.82975v0c-2.96342,3.62633 -1.6125,8.33842 1.43692,11.14417l23.64283,18.2105c1.52292,1.41183 8.65017,8.82217 15.87417,8.86158c8.0625,0.04658 16.34358,-3.30383 16.34358,-3.30383l-8.58925,-27.47342l-16.383,2.20733l-19.44675,-10.277c-5.36067,-3.21783 -9.79683,-3.01717 -12.8785,0.63067" fill="#f1e4ae"></path><path d="M98.64917,129.61992c-1.8705,-1.92783 -1.82392,-5.00233 0.10392,-6.87642c1.92783,-1.86692 5.0095,-1.82392 6.87642,0.1075c1.8705,1.92425 -5.10983,8.69675 -6.98033,6.76892" fill="#f1c48f"></path><path d="M80.20933,126.96108l-6.3855,8.86158l10.82883,1.42975z" fill="#37474f"></path><path d="M58.94583,73.58017l-9.70008,-9.70008l5.06683,-5.06683l4.63325,4.63325l9.29158,-9.29517l5.06683,5.06683z" fill="#66bb6a"></path><rect x="-9.61778" y="29.3772" transform="rotate(-45.001) scale(3.58333,3.58333)" width="6.451" height="2" fill="#e53935"></rect><rect x="-7.39178" y="27.1522" transform="rotate(-45.001) scale(3.58333,3.58333)" width="2" height="6.451" fill="#e53935"></rect></g></g></svg>