<svg version="1.1" xmlns="http://www.w3.org/2000/svg" xmlns:xlink="http://www.w3.org/1999/xlink" viewBox="0 0 172 172"><g fill="none" fill-rule="nonzero" stroke="none" stroke-width="1" stroke-linecap="butt" stroke-linejoin="miter" stroke-miterlimit="10" stroke-dasharray="" stroke-dashoffset="0" font-family="none" font-weight="none" font-size="none" text-anchor="none" style="mix-blend-mode: normal"><path d="M0,172v-172h172v172z" fill="none"></path><g><path d="M86,14.33333c-39.58041,0 -71.66667,32.08626 -71.66667,71.66667c0,39.58041 32.08626,71.66667 71.66667,71.66667c39.58041,0 71.66667,-32.08626 71.66667,-71.66667c0,-39.58041 -32.08626,-71.66667 -71.66667,-71.66667z" fill="#ede7f6"></path><path d="M86,157.66667c16.73058,0 32.08875,-5.77992 44.28283,-15.39042c-6.13108,-15.46925 -18.65125,-31.19292 -44.28283,-31.19292c-25.63158,0 -38.15175,15.72367 -44.28283,31.19292c12.19408,9.6105 27.54867,15.39042 44.28283,15.39042z" fill="#4e342e"></path><path d="M53.75,39.41667l17.91667,17.91667l-25.08333,17.91667c0,0 -3.58333,-5.43233 -3.58333,-14.33333c0,-13.41242 10.75,-21.5 10.75,-21.5zM118.25,39.41667l-17.91667,17.91667l25.08333,17.91667c0,0 3.58333,-5.43233 3.58333,-14.33333c0,-13.41242 -10.75,-21.5 -10.75,-21.5z" fill="#8d6e63"></path><path d="M86,50.16667c-50.44975,0 -50.16667,60.91667 -50.16667,60.91667c0,0 14.147,21.5 50.16667,21.5c36.01967,0 50.16667,-21.5 50.16667,-21.5c0,0 0.28308,-60.91667 -50.16667,-60.91667z" fill="#8d6e63"></path><path d="M126.43433,73.30425c1.06067,-2.31125 2.56567,-6.59692 2.56567,-12.38758c0,-13.41242 -10.75,-21.5 -10.75,-21.5l-5.32483,18.6405c5.85517,4.12083 10.234,9.49583 13.50917,15.24708zM59.07483,58.05717l-5.32483,-18.6405c0,0 -10.75,8.08758 -10.75,21.5c0,5.79067 1.505,10.07633 2.56567,12.38758c3.27517,-5.75125 7.654,-11.12625 13.50917,-15.24708z" fill="#ef9a9a"></path><path d="M86,111.08333c0,0 -0.559,10.75 -10.75,10.75c0,0 2.82725,3.58333 10.75,3.58333c8.03383,0 10.75,-3.58333 10.75,-3.58333c-10.63892,0 -10.75,-10.75 -10.75,-10.75z" fill="#5d4037"></path><path d="M86,114.66667l-7.16667,-7.16667v-3.58333h14.33333v3.58333z" fill="#263238"></path><path d="M118.25,78.83333c0,0 2.13567,21.5 -12.685,21.5c-6.84058,0 -12.39833,0 -12.39833,0c0,0 -0.82775,-21.5 14.33333,-21.5c6.84775,0 10.75,0 10.75,0zM78.8405,100.33333c0,0 2.13567,-21.5 -12.685,-21.5c-6.84058,0 -12.39833,0 -12.39833,0c0,0 -0.82775,21.5 14.33333,21.5c6.84775,0 10.75,0 10.75,0z" fill="#ffeb3b"></path><path d="M111.08333,89.58333c0,5.93758 -5.375,10.75 -5.375,10.75c0,0 -5.375,-4.81242 -5.375,-10.75c0,-5.93758 5.375,-10.75 5.375,-10.75c0,0 5.375,4.81242 5.375,10.75zM71.67383,89.58333c0,-5.93758 -5.375,-10.75 -5.375,-10.75c0,0 -5.375,4.81242 -5.375,10.75c0,5.93758 5.375,10.75 5.375,10.75c0,0 5.375,-4.81242 5.375,-10.75z" fill="#212121"></path></g></g></svg>