<svg version="1.1" xmlns="http://www.w3.org/2000/svg" xmlns:xlink="http://www.w3.org/1999/xlink" viewBox="0 0 172 172"><g fill="none" fill-rule="nonzero" stroke="none" stroke-width="1" stroke-linecap="butt" stroke-linejoin="miter" stroke-miterlimit="10" stroke-dasharray="" stroke-dashoffset="0" font-family="none" font-weight="none" font-size="none" text-anchor="none" style="mix-blend-mode: normal"><path d="M0,172v-172h172v172z" fill="none"></path><g><path d="M62.61078,30.74136l95.1162,31.93254l-31.93254,95.1162l-95.1162,-31.93254z" fill="#64b5f6"></path><path d="M68.94301,44.78055l74.95708,24.41579l-22.19618,68.1428l-74.95708,-24.41579z" fill="#1e88e5"></path><path d="M38.98504,20.73515l98.66789,18.20509l-18.20509,98.66789l-98.66789,-18.20509z" fill="#90caf9"></path><path d="M47.36642,33.80484l77.61938,13.78139l-12.52854,70.56307l-77.61938,-13.78139z" fill="#42a5f5"></path><path d="M14.33333,14.33333h100.33333v100.33333h-100.33333z" fill="#bbdefb"></path><path d="M25.08333,25.08333h78.83333v71.66667h-78.83333z" fill="#4caf50"></path><path d="M57.33333,46.58333c0,-3.94167 3.225,-7.16667 7.16667,-7.16667c3.94167,0 7.16667,3.225 7.16667,7.16667c0,3.94167 -7.16667,14.33333 -7.16667,14.33333c0,0 -7.16667,-10.39167 -7.16667,-14.33333zM71.66667,75.25c0,3.94167 -3.225,7.16667 -7.16667,7.16667c-3.94167,0 -7.16667,-3.225 -7.16667,-7.16667c0,-3.94167 7.16667,-14.33333 7.16667,-14.33333c0,0 7.16667,10.39167 7.16667,14.33333z" fill="#ffffff"></path><path d="M48.375,59.84167c-3.58333,-2.15 -4.65833,-6.45 -2.50833,-9.675c2.15,-3.58333 6.45,-4.65833 9.675,-2.50833c3.58333,2.15 8.95833,13.25833 8.95833,13.25833c0,0 -12.54167,1.075 -16.125,-1.075zM80.625,61.99167c3.58333,2.15 4.65833,6.45 2.50833,9.675c-2.15,3.58333 -6.45,4.65833 -9.675,2.50833c-3.58333,-1.79167 -8.95833,-13.25833 -8.95833,-13.25833c0,0 12.54167,-1.075 16.125,1.075z" fill="#ffffff"></path><path d="M80.625,59.84167c3.58333,-2.15 4.65833,-6.45 2.50833,-9.675c-2.15,-3.58333 -6.45,-4.65833 -9.675,-2.50833c-3.58333,1.79167 -8.95833,13.25833 -8.95833,13.25833c0,0 12.54167,1.075 16.125,-1.075zM48.375,61.99167c-3.58333,2.15 -4.65833,6.45 -2.50833,9.675c2.15,3.58333 6.45,4.65833 9.675,2.50833c3.58333,-2.15 8.95833,-13.25833 8.95833,-13.25833c0,0 -12.54167,-1.075 -16.125,1.075z" fill="#ffffff"></path><path d="M64.5,53.75c-3.95804,0 -7.16667,3.20863 -7.16667,7.16667c0,3.95804 3.20863,7.16667 7.16667,7.16667c3.95804,0 7.16667,-3.20863 7.16667,-7.16667c0,-3.95804 -3.20863,-7.16667 -7.16667,-7.16667z" fill="#ffc107"></path></g></g></svg>