<svg version="1.1" xmlns="http://www.w3.org/2000/svg" xmlns:xlink="http://www.w3.org/1999/xlink" viewBox="0 0 172 172"><g fill="none" fill-rule="nonzero" stroke="none" stroke-width="1" stroke-linecap="butt" stroke-linejoin="miter" stroke-miterlimit="10" stroke-dasharray="" stroke-dashoffset="0" font-family="none" font-weight="none" font-size="none" text-anchor="none" style="mix-blend-mode: normal"><path d="M0,172v-172h172v172z" fill="none"></path><g><path d="M82.41667,57.33333c-0.35833,-19.35 13.975,-20.78333 25.44167,-22.21667c13.61667,-1.43333 21.14167,-2.86667 21.14167,-17.2h7.16667c0,21.5 -15.76667,23.29167 -27.59167,24.36667c-12.54167,1.43333 -19.35,2.50833 -18.99167,14.69167z" fill="#546e7a"></path><path d="M161.25,136.16667c0,11.825 -7.16667,17.91667 -17.91667,17.91667c-10.75,0 -21.5,-28.66667 -35.83333,-28.66667c-14.33333,0 -25.08333,0 -39.41667,0c-14.33333,0 -28.66667,28.66667 -39.41667,28.66667c-10.75,0 -17.91667,-6.09167 -17.91667,-17.91667c0,0 0,-86 32.25,-86c14.33333,0 18.275,7.16667 25.08333,7.16667c14.69167,0 17.55833,0 32.25,0c6.80833,0 14.33333,-7.16667 28.66667,-7.16667c32.25,0 32.25,86 32.25,86z" fill="#cfd8dc"></path><path d="M147.275,84.56667c2.86667,2.86667 2.86667,7.16667 0,10.03333l-20.425,20.425c-2.86667,2.86667 -7.16667,2.86667 -10.03333,0l-20.425,-20.425c-2.86667,-2.86667 -2.86667,-7.16667 0,-10.03333l20.425,-20.425c2.86667,-2.86667 7.16667,-2.86667 10.03333,0z" fill="#ffffff"></path><path d="M129,75.25c0,3.94167 -3.225,7.16667 -7.16667,7.16667c-3.94167,0 -7.16667,-3.225 -7.16667,-7.16667c0,-3.94167 3.225,-7.16667 7.16667,-7.16667c3.94167,0 7.16667,3.225 7.16667,7.16667z" fill="#ffc107"></path><path d="M129,103.91667c0,3.94167 -3.225,7.16667 -7.16667,7.16667c-3.94167,0 -7.16667,-3.225 -7.16667,-7.16667c0,-3.94167 3.225,-7.16667 7.16667,-7.16667c3.94167,0 7.16667,3.225 7.16667,7.16667z" fill="#8bc34a"></path><path d="M129,89.58333c0,-3.94167 3.225,-7.16667 7.16667,-7.16667c3.94167,0 7.16667,3.225 7.16667,7.16667c0,3.94167 -3.225,7.16667 -7.16667,7.16667c-3.94167,0 -7.16667,-3.225 -7.16667,-7.16667z" fill="#f44336"></path><path d="M114.66667,89.58333c0,3.94167 -3.225,7.16667 -7.16667,7.16667c-3.94167,0 -7.16667,-3.225 -7.16667,-7.16667c0,-3.94167 3.225,-7.16667 7.16667,-7.16667c3.94167,0 7.16667,3.225 7.16667,7.16667z" fill="#2196f3"></path><path d="M43,71.66667h14.33333v14.33333h-14.33333zM57.33333,86h14.33333v14.33333h-14.33333zM28.66667,86h14.33333v14.33333h-14.33333zM43,100.33333h14.33333v14.33333h-14.33333z" fill="#78909c"></path></g></g></svg>