<svg version="1.1" xmlns="http://www.w3.org/2000/svg" xmlns:xlink="http://www.w3.org/1999/xlink" viewBox="0 0 172 172"><g fill="none" fill-rule="nonzero" stroke="none" stroke-width="1" stroke-linecap="butt" stroke-linejoin="miter" stroke-miterlimit="10" stroke-dasharray="" stroke-dashoffset="0" font-family="none" font-weight="none" font-size="none" text-anchor="none" style="mix-blend-mode: normal"><path d="M0,172v-172h172v172z" fill="none"></path><g><path d="M150.5,139.75h-129v-57.33333l64.5,-60.91667l64.5,60.91667z" fill="#e8eaf6"></path><path d="M139.75,75.25l-17.91667,-17.91667v-25.08333h17.91667zM21.5,139.75h129v17.91667h-129z" fill="#c5cae9"></path><path d="M86,15.40833l-71.66667,66.65l7.16667,7.88333l64.5,-59.84167l64.5,59.84167l7.16667,-7.88333z" fill="#b71c1c"></path><path d="M64.5,100.33333h43v57.33333h-43z" fill="#d84315"></path><path d="M75.25,60.91667h21.5v21.5h-21.5z" fill="#01579b"></path><path d="M98.54167,127.20833c-1.075,0 -1.79167,0.71667 -1.79167,1.79167v7.16667c0,1.075 0.71667,1.79167 1.79167,1.79167c1.075,0 1.79167,-0.71667 1.79167,-1.79167v-7.16667c0,-1.075 -0.71667,-1.79167 -1.79167,-1.79167z" fill="#ff8a65"></path></g></g></svg>