<?xml version="1.0" encoding="utf-8"?>
<svg version="1.1" xmlns:xlink="http://www.w3.org/1999/xlink" width="32px" height="32px" xmlns="http://www.w3.org/2000/svg">
  <g>
    <path d="M 31.2934782608696 12.8267008985879  C 31.7644927536232 13.3401797175867  32 13.9597774925118  32 14.6854942233633  L 32 17.3145057766367  C 32 18.0402225074882  31.7644927536232 18.6598202824133  31.2934782608696 19.1732991014121  C 30.8224637681159 19.6867779204108  30.2101449275362 19.9435173299101  29.4565217391304 20  L 14.1521739130435 20  L 20.5217391304348 25.982028241335  C 21.0724637681159 26.4749679075738  21.3478260869565 27.0911424903723  21.3478260869565 27.8305519897304  C 21.3478260869565 28.5699614890886  21.0724637681159 29.186136071887  20.5217391304348 29.6790757381258  L 18.8913043478261 31.2400513478819  C 18.3550724637681 31.7466837826273  17.7028985507246 32  16.9347826086957 32  C 16.1811594202899 32  15.5217391304348 31.7466837826273  14.9565217391304 31.2400513478819  L 0.804347826086957 17.8485237483954  C 0.268115942028986 17.34189131365  0 16.7257167308515  0 16  C 0 15.2879760376551  0.268115942028986 14.6649550706033  0.804347826086957 14.1309370988447  L 14.9565217391304 0.780487804878049  C 15.5072463768116 0.260162601626014  16.1666666666667 0  16.9347826086957 0  C 17.6884057971014 0  18.3405797101449 0.260162601626014  18.8913043478261 0.780487804878049  L 20.5217391304348 2.30038510911425  C 21.0724637681159 2.82071031236628  21.3478260869565 3.44373127941805  21.3478260869565 4.16944801026958  C 21.3478260869565 4.89516474112109  21.0724637681159 5.51818570817287  20.5217391304348 6.0385109114249  L 14.1521739130435 12  L 29.4565217391304 12  C 30.2101449275362 12.0564826700899  30.8224637681159 12.3132220795892  31.2934782608696 12.8267008985879  Z " fill-rule="nonzero" fill="#ffffff" stroke="none" />
  </g>
</svg>