<?xml version="1.0" encoding="utf-8"?>
<svg version="1.1" xmlns:xlink="http://www.w3.org/1999/xlink" width="32px" height="32px" xmlns="http://www.w3.org/2000/svg">
  <g transform="matrix(1 0 0 1 -396 0 )">
    <path d="M 31.195652173913 14.1514762516046  C 31.731884057971 14.6307231493368  32 15.2468977321352  32 16  C 32 16.7394094993582  31.731884057971 17.3624304664099  31.195652173913 17.8690629011553  L 17.0434782608696 31.2400513478819  C 16.4782608695652 31.7466837826273  15.8188405797101 32  15.0652173913043 32  C 14.3260869565217 32  13.6739130434783 31.7466837826273  13.1086956521739 31.2400513478819  L 11.4782608695652 29.6996148908858  C 10.9275362318841 29.1792896876337  10.6521739130435 28.5562687205819  10.6521739130435 27.8305519897304  C 10.6521739130435 27.1048352588789  10.9275362318841 26.4818142918271  11.4782608695652 25.9614890885751  L 17.8478260869565 20  L 2.54347826086957 20  C 1.78985507246377 19.9435173299101  1.17753623188406 19.6867779204108  0.706521739130435 19.1732991014121  C 0.235507246376812 18.6598202824133  0 18.0402225074882  0 17.3145057766367  L 0 14.6854942233633  C 0 13.9597774925118  0.235507246376812 13.3401797175867  0.706521739130435 12.8267008985879  C 1.17753623188406 12.3132220795892  1.78985507246377 12.0564826700899  2.54347826086957 12  L 17.8478260869565 12  L 11.4782608695652 6.01797175866496  C 10.9275362318841 5.52503209242619  10.6521739130435 4.90885750962773  10.6521739130435 4.16944801026958  C 10.6521739130435 3.43003851091143  10.9275362318841 2.81386392811297  11.4782608695652 2.3209242618742  L 13.1086956521739 0.780487804878049  C 13.6594202898551 0.260162601626014  14.3115942028986 0  15.0652173913043 0  C 15.8333333333333 0  16.4927536231884 0.260162601626014  17.0434782608696 0.780487804878049  L 31.195652173913 14.1514762516046  Z " fill-rule="nonzero" fill="#ffffff" stroke="none" transform="matrix(1 0 0 1 396 0 )" />
  </g>
</svg>