<svg version="1.1" xmlns="http://www.w3.org/2000/svg" xmlns:xlink="http://www.w3.org/1999/xlink" viewBox="0 0 172 172"><g fill="none" fill-rule="nonzero" stroke="none" stroke-width="1" stroke-linecap="butt" stroke-linejoin="miter" stroke-miterlimit="10" stroke-dasharray="" stroke-dashoffset="0" font-family="none" font-weight="none" font-size="none" text-anchor="none" style="mix-blend-mode: normal"><path d="M0,172v-172h172v172z" fill="none"/><g><path d="M143.33333,161.25h-114.66667v-150.5h78.83333l35.83333,35.83333z" fill="#90caf9"/><path d="M137.95833,50.16667h-34.04167v-34.04167z" fill="#e1f5fe"/><path d="M170.84617,104.42192l-10.105,-10.09783c-1.53725,-1.54083 -4.03483,-1.54083 -5.57208,0l-4.75867,4.75867l15.68067,15.67708l4.75508,-4.75867c1.53725,-1.54083 1.53725,-4.03483 0,-5.57925" fill="#e57373"/><path d="M98.44121,151.05276l44.13041,-44.13195l15.67942,15.67888l-44.13041,44.13195z" fill="#ff9800"/><path d="M166.09001,114.75208l-7.83944,7.83971l-15.68196,-15.68141l7.83944,-7.83971z" fill="#b0bec5"/><path d="M98.44492,151.04467l-5.27825,20.95533l20.95533,-5.27825z" fill="#ffc107"/><path d="M95.83267,161.40408l-2.666,10.59592l10.59233,-2.666z" fill="#37474f"/></g></g></svg>